<?xml version="1.0" standalone="no"?>
<!DOCTYPE svg PUBLIC "-//W3C//DTD SVG 20010904//EN"
 "http://www.w3.org/TR/2001/REC-SVG-20010904/DTD/svg10.dtd">
<svg version="1.0" xmlns="http://www.w3.org/2000/svg"
 width="260.000000pt" height="260.000000pt" viewBox="0 0 260.000000 260.000000"
 preserveAspectRatio="xMidYMid meet">
<metadata>
Created by potrace 1.11, written by Peter Selinger 2001-2013
</metadata>
<g transform="translate(0.000000,260.000000) scale(0.100000,-0.100000)"
fill="#000000" stroke="none">
<path d="M0 1300 l0 -1300 1300 0 1300 0 0 1300 0 1300 -1300 0 -1300 0 0
-1300z m2146 645 c52 -22 133 -103 167 -170 29 -55 32 -68 32 -155 0 -85 -3
-101 -29 -153 -36 -71 -99 -131 -172 -163 -30 -13 -57 -31 -61 -40 -4 -11 11
-33 48 -68 30 -28 83 -98 119 -155 36 -56 82 -128 102 -159 21 -31 45 -72 55
-90 16 -31 16 -33 0 -50 -13 -13 -39 -18 -100 -20 -107 -5 -131 11 -204 133
-127 211 -220 337 -265 358 -45 21 -128 30 -188 22 -82 -11 -85 -20 -81 -260
3 -243 2 -246 -98 -253 -67 -5 -116 10 -132 39 -6 12 -9 222 -9 564 1 300 -2
549 -5 555 -9 14 12 47 38 62 32 19 207 26 496 22 187 -4 262 -8 287 -19z
m-1812 4 c26 -12 56 -63 56 -96 0 -10 10 -38 22 -63 11 -25 36 -92 54 -150 18
-58 58 -175 88 -260 31 -85 66 -191 77 -235 22 -91 45 -123 72 -103 19 14 58
110 117 288 63 188 96 281 123 345 14 33 33 89 42 125 34 133 61 160 160 160
46 0 60 -4 81 -25 24 -24 24 -25 8 -62 -9 -21 -21 -51 -27 -68 -5 -16 -19 -55
-30 -85 -11 -30 -40 -109 -64 -175 -24 -66 -57 -156 -72 -200 -16 -45 -36 -95
-45 -113 -9 -18 -26 -63 -37 -99 -12 -37 -31 -89 -44 -117 -12 -28 -30 -76
-39 -106 -27 -87 -69 -164 -96 -177 -14 -7 -55 -13 -92 -13 -55 0 -71 4 -93
23 -29 24 -63 100 -102 222 -14 44 -32 89 -39 100 -7 11 -29 65 -48 120 -19
55 -53 152 -76 215 -24 63 -60 162 -80 220 -21 58 -51 134 -67 170 -46 100
-48 116 -19 145 21 21 35 25 85 25 33 0 71 -5 85 -11z"/>
<path d="M1590 1790 c-11 -11 -20 -26 -21 -32 0 -7 -2 -82 -3 -167 -2 -210
-17 -196 211 -196 l178 0 60 42 c73 52 103 94 111 156 13 90 -47 182 -133 206
-21 6 -116 11 -210 11 -160 0 -175 -2 -193 -20z"/>
</g>
</svg>
